<?xml version="1.0" encoding="UTF-8"?>
<svg width="24" height="24" viewBox="0 0 24 24" version="1.1" xmlns="http://www.w3.org/2000/svg">
    <g stroke="none" fill="none" fill-rule="evenodd">
        <!-- Smart glasses frame -->
        <path d="M4,12 C4,10 5,9 7,9 L9,9 C11,9 12,10 12,12 M12,12 C12,10 13,9 15,9 L17,9 C19,9 20,10 20,12"
              stroke="#000000"
              stroke-width="1.5"
              stroke-linecap="round"/>
              
        <!-- Temple arms -->
        <path d="M4,12 L3,8 M20,12 L21,8"
              stroke="#000000"
              stroke-width="1.5"
              stroke-linecap="round"/>
              
        <!-- AR interface elements -->
        <path d="M8,11 L8,13 M16,11 L16,13"
              stroke="#000000"
              stroke-width="1"
              stroke-linecap="round"
              stroke-opacity="0.6"/>
              
        <!-- Data overlay -->
        <path d="M6,7 L7,7 M6.5,6.5 L6.5,7.5"
              stroke="#000000"
              stroke-width="1"
              stroke-linecap="round"/>
        <path d="M17,7 L18,7 M17.5,6.5 L17.5,7.5"
              stroke="#000000"
              stroke-width="1"
              stroke-linecap="round"/>
              
        <!-- Connection indicators -->
        <circle cx="8" cy="12" r="1" fill="#000000"/>
        <circle cx="16" cy="12" r="1" fill="#000000"/>
    </g>
</svg> 