<?xml version="1.0" encoding="UTF-8"?>
<svg width="24" height="24" viewBox="0 0 24 24" version="1.1" xmlns="http://www.w3.org/2000/svg">
    <g stroke="none" fill="none" fill-rule="evenodd">
        <!-- Hexagon network -->
        <path d="M4,12 L8,8 L12,6 L16,8 L20,12 L16,16 L12,18 L8,16 Z"
              stroke="#000000"
              stroke-width="1.5"
              fill-opacity="0.1"
              fill="#000000"/>
              
        <!-- Bee body -->
        <circle cx="12" cy="12" r="3"
              fill="#000000"
              fill-opacity="0.8"/>
              
        <!-- Wings -->
        <path d="M9,10 C7,8 7,6 9,4 M15,10 C17,8 17,6 15,4"
              stroke="#000000"
              stroke-width="1.5"
              stroke-linecap="round"/>
              
        <!-- Neural connections -->
        <path d="M12,9 L12,6 M12,15 L12,18 M9,12 L6,12 M15,12 L18,12"
              stroke="#000000"
              stroke-width="1"
              stroke-linecap="round"
              stroke-dasharray="2,2"/>
              
        <!-- Connection nodes -->
        <circle cx="12" cy="6" r="1" fill="#000000"/>
        <circle cx="12" cy="18" r="1" fill="#000000"/>
        <circle cx="6" cy="12" r="1" fill="#000000"/>
        <circle cx="18" cy="12" r="1" fill="#000000"/>
    </g>
</svg> 