<?xml version="1.0" encoding="UTF-8"?>
<svg width="24" height="24" viewBox="0 0 24 24" version="1.1" xmlns="http://www.w3.org/2000/svg">
    <g stroke="none" fill="none" fill-rule="evenodd">
        <!-- Database cylinders -->
        <path d="M6,5 C6,3.8954305 8.6862915,3 12,3 C15.3137085,3 18,3.8954305 18,5 L18,7 C18,8.1045695 15.3137085,9 12,9 C8.6862915,9 6,8.1045695 6,7 L6,5 Z"
              stroke="#000000"
              stroke-width="1.5"
              fill="#000000"
              fill-opacity="0.1"/>
              
        <path d="M6,11 C6,9.8954305 8.6862915,9 12,9 C15.3137085,9 18,9.8954695 18,11 L18,13 C18,14.1045695 15.3137085,15 12,15 C8.6862915,15 6,14.1045695 6,13 L6,11 Z"
              stroke="#000000"
              stroke-width="1.5"
              fill="#000000"
              fill-opacity="0.1"/>
              
        <path d="M6,17 C6,15.8954305 8.6862915,15 12,15 C15.3137085,15 18,15.8954695 18,17 L18,19 C18,20.1045695 15.3137085,21 12,21 C8.6862915,21 6,20.1045695 6,19 L6,17 Z"
              stroke="#000000"
              stroke-width="1.5"
              fill="#000000"
              fill-opacity="0.1"/>
              
        <!-- Vector connections -->
        <path d="M9,7 L15,13 M9,13 L15,7 M9,19 L15,13"
              stroke="#000000"
              stroke-width="1"
              stroke-linecap="round"
              stroke-opacity="0.6"/>
              
        <!-- Data points -->
        <circle cx="9" cy="7" r="1" fill="#000000"/>
        <circle cx="15" cy="7" r="1" fill="#000000"/>
        <circle cx="9" cy="13" r="1" fill="#000000"/>
        <circle cx="15" cy="13" r="1" fill="#000000"/>
        <circle cx="9" cy="19" r="1" fill="#000000"/>
        <circle cx="15" cy="19" r="1" fill="#000000"/>
    </g>
</svg> 