<?xml version="1.0" encoding="UTF-8"?>
<svg width="24" height="24" viewBox="0 0 24 24" version="1.1" xmlns="http://www.w3.org/2000/svg">
    <g stroke="none" fill="none" fill-rule="evenodd">
        <!-- Central hub -->
        <circle cx="12" cy="12" r="4" 
                stroke="#000000"
                stroke-width="1.5"/>
                
        <!-- Connection lines to tools/services -->
        <path d="M12,8 L12,4 M12,16 L12,20 M8,12 L4,12 M16,12 L20,12 M9,9 L6,6 M15,15 L18,18 M9,15 L6,18 M15,9 L18,6"
              stroke="#000000"
              stroke-width="1.5"
              stroke-linecap="round"/>
        
        <!-- Connected nodes representing tools -->
        <circle cx="12" cy="4" r="1.5" 
                fill="#000000"/>
        <circle cx="12" cy="20" r="1.5" 
                fill="#000000"/>
        <circle cx="4" cy="12" r="1.5" 
                fill="#000000"/>
        <circle cx="20" cy="12" r="1.5" 
                fill="#000000"/>
        <circle cx="6" cy="6" r="1.5" 
                fill="#000000" 
                fill-opacity="0.6"/>
        <circle cx="18" cy="18" r="1.5" 
                fill="#000000" 
                fill-opacity="0.6"/>
        <circle cx="6" cy="18" r="1.5" 
                fill="#000000" 
                fill-opacity="0.6"/>
        <circle cx="18" cy="6" r="1.5" 
                fill="#000000" 
                fill-opacity="0.6"/>
    </g>
</svg> 