<?xml version="1.0" encoding="UTF-8"?>
<svg width="24" height="24" viewBox="0 0 24 24" version="1.1" xmlns="http://www.w3.org/2000/svg">
    <g stroke="none" fill="none" fill-rule="evenodd">
        <!-- Spider body -->
        <circle cx="12" cy="12" r="3" fill="#000000"/>
        
        <!-- Spider legs (web crawling) -->
        <path d="M12,9 L9,6 M12,9 L15,6 M12,15 L9,18 M12,15 L15,18"
              stroke="#000000"
              stroke-width="1.5"
              stroke-linecap="round"/>
              
        <!-- Web connections -->
        <path d="M6,12 L9,12 M15,12 L18,12"
              stroke="#000000"
              stroke-width="1.5"
              stroke-linecap="round"/>
              
        <!-- Data nodes -->
        <circle cx="6" cy="12" r="1.5" fill="#000000"/>
        <circle cx="18" cy="12" r="1.5" fill="#000000"/>
        <circle cx="9" cy="6" r="1.5" fill="#000000"/>
        <circle cx="15" cy="6" r="1.5" fill="#000000"/>
        <circle cx="9" cy="18" r="1.5" fill="#000000"/>
        <circle cx="15" cy="18" r="1.5" fill="#000000"/>
        
        <!-- Connection paths -->
        <path d="M7.5,7.5 C9,9 15,9 16.5,7.5 M7.5,16.5 C9,15 15,15 16.5,16.5"
              stroke="#000000"
              stroke-width="1"
              stroke-linecap="round"
              stroke-opacity="0.5"/>
    </g>
</svg> 