<svg xmlns="http://www.w3.org/2000/svg" xmlns:xlink="http://www.w3.org/1999/xlink" id="svg" version="1.1" width="400" height="472.4409448818898" viewBox="0, 0, 400,472.4409448818898 undefined"><g id="svgg"><path id="path0" d="M27.600 0.400 C 27.600 0.620,26.706 0.800,25.614 0.800 C 24.038 0.800,23.540 0.965,23.200 1.600 C 22.895 2.170,22.362 2.400,21.348 2.400 C 20.262 2.400,19.876 2.589,19.716 3.200 C 19.559 3.801,19.170 4.000,18.153 4.000 C 17.207 4.000,16.800 4.184,16.800 4.610 C 16.800 4.945,16.350 5.391,15.800 5.600 C 15.250 5.809,14.800 6.255,14.800 6.590 C 14.800 7.005,14.405 7.200,13.563 7.200 C 12.662 7.200,12.268 7.417,12.116 8.000 C 12.000 8.443,11.570 8.800,11.153 8.800 C 10.667 8.800,10.400 9.083,10.400 9.600 C 10.400 10.133,10.133 10.400,9.600 10.400 C 9.083 10.400,8.800 10.667,8.800 11.153 C 8.800 11.570,8.443 12.000,8.000 12.116 C 7.426 12.266,7.200 12.662,7.200 13.516 C 7.200 14.370,6.974 14.766,6.400 14.916 C 5.960 15.031,5.600 15.400,5.600 15.736 C 5.600 16.071,5.240 16.460,4.800 16.600 C 4.212 16.787,4.000 17.205,4.000 18.180 C 4.000 19.170,3.797 19.560,3.200 19.716 C 2.594 19.875,2.400 20.262,2.400 21.316 C 2.400 22.370,2.206 22.757,1.600 22.916 C 0.987 23.076,0.800 23.462,0.800 24.563 C 0.800 25.353,0.620 26.000,0.400 26.000 C 0.138 26.000,0.000 33.867,0.000 48.800 L 0.000 71.600 171.520 71.600 C 304.391 71.600,343.148 71.492,343.520 71.120 C 344.435 70.205,344.003 67.200,342.957 67.200 C 342.651 67.200,342.400 66.840,342.400 66.400 C 342.400 65.935,342.133 65.600,341.763 65.600 C 341.412 65.600,341.031 65.240,340.916 64.800 C 340.800 64.357,340.370 64.000,339.953 64.000 C 339.467 64.000,339.200 63.717,339.200 63.200 C 339.200 62.667,338.933 62.400,338.400 62.400 C 337.867 62.400,337.600 62.133,337.600 61.600 C 337.600 61.067,337.333 60.800,336.800 60.800 C 336.267 60.800,336.000 60.533,336.000 60.000 C 336.000 59.467,335.733 59.200,335.200 59.200 C 334.667 59.200,334.400 58.933,334.400 58.400 C 334.400 57.883,334.133 57.600,333.647 57.600 C 333.230 57.600,332.800 57.243,332.684 56.800 C 332.569 56.360,332.209 56.000,331.884 56.000 C 331.559 56.000,331.199 55.640,331.084 55.200 C 330.932 54.617,330.538 54.400,329.637 54.400 C 328.667 54.400,328.400 54.228,328.400 53.600 C 328.400 53.067,328.133 52.800,327.600 52.800 C 327.067 52.800,326.800 52.533,326.800 52.000 C 326.800 51.467,326.533 51.200,326.000 51.200 C 325.467 51.200,325.200 50.933,325.200 50.400 C 325.200 49.883,324.933 49.600,324.447 49.600 C 324.030 49.600,323.600 49.243,323.484 48.800 C 323.369 48.360,323.007 48.000,322.680 48.000 C 322.353 48.000,321.986 47.740,321.864 47.422 C 321.742 47.104,321.003 46.724,320.221 46.578 C 319.189 46.384,318.800 46.104,318.800 45.555 C 318.800 45.067,318.518 44.800,318.000 44.800 C 317.535 44.800,317.200 44.533,317.200 44.163 C 317.200 43.812,316.852 43.434,316.428 43.323 C 316.003 43.212,315.562 42.879,315.449 42.583 C 315.335 42.286,314.603 41.924,313.821 41.778 C 312.952 41.615,312.400 41.281,312.400 40.918 C 312.400 40.592,312.040 40.231,311.600 40.116 C 311.160 40.001,310.800 39.658,310.800 39.353 C 310.800 39.049,310.440 38.800,310.000 38.800 C 309.560 38.800,308.840 38.440,308.400 38.000 C 307.960 37.560,307.342 37.200,307.027 37.200 C 306.712 37.200,306.340 36.840,306.200 36.400 C 306.011 35.805,305.595 35.600,304.573 35.600 C 303.467 35.600,303.200 35.445,303.200 34.800 C 303.200 34.271,302.933 34.000,302.414 34.000 C 301.982 34.000,301.435 33.640,301.200 33.200 C 300.920 32.676,300.362 32.400,299.586 32.400 C 298.667 32.400,298.400 32.220,298.400 31.600 C 298.400 30.933,298.133 30.800,296.800 30.800 C 295.467 30.800,295.200 30.667,295.200 30.000 C 295.200 29.463,294.933 29.200,294.387 29.200 C 293.941 29.200,293.476 28.941,293.354 28.624 C 293.233 28.308,292.590 27.930,291.926 27.784 C 291.262 27.638,290.377 27.177,289.959 26.759 C 289.542 26.342,288.771 26.000,288.247 26.000 C 287.630 26.000,287.219 25.718,287.084 25.200 C 286.925 24.594,286.538 24.400,285.484 24.400 C 284.430 24.400,284.043 24.206,283.884 23.600 C 283.724 22.987,283.338 22.800,282.237 22.800 C 281.246 22.800,280.800 22.619,280.800 22.218 C 280.800 21.861,280.219 21.529,279.300 21.360 C 278.475 21.208,277.371 20.750,276.846 20.342 C 276.321 19.934,275.494 19.600,275.008 19.600 C 274.522 19.600,273.798 19.240,273.400 18.800 C 272.951 18.304,272.168 18.000,271.338 18.000 C 270.465 18.000,270.000 17.807,270.000 17.447 C 270.000 16.862,268.824 16.415,267.263 16.405 C 266.748 16.402,265.869 16.040,265.309 15.600 C 264.750 15.160,263.796 14.800,263.189 14.800 C 262.577 14.800,261.983 14.533,261.855 14.200 C 261.729 13.870,261.192 13.600,260.663 13.600 C 258.849 13.600,257.200 13.100,257.200 12.550 C 257.200 12.151,256.607 12.000,255.047 12.000 C 253.230 12.000,252.861 11.875,252.684 11.200 C 252.508 10.526,252.138 10.400,250.334 10.400 C 248.626 10.400,248.091 10.238,247.693 9.600 C 247.272 8.926,246.760 8.800,244.443 8.800 C 242.030 8.800,241.668 8.702,241.484 8.000 C 241.309 7.330,240.938 7.200,239.201 7.200 C 237.732 7.200,236.829 6.966,236.109 6.400 C 235.340 5.795,234.486 5.600,232.608 5.600 C 230.632 5.600,229.976 5.436,229.400 4.800 C 228.776 4.110,228.168 4.000,224.985 4.000 C 221.630 4.000,221.274 3.927,221.084 3.200 C 220.891 2.460,220.538 2.400,216.401 2.400 C 212.532 2.400,211.789 2.292,210.909 1.600 C 210.022 0.902,209.286 0.800,205.146 0.800 C 202.249 0.800,200.400 0.644,200.400 0.400 C 200.400 0.135,171.333 0.000,114.000 0.000 C 56.667 0.000,27.600 0.135,27.600 0.400 M0.000 169.400 L 0.000 205.600 38.100 205.596 C 76.730 205.591,79.200 205.528,79.200 204.548 C 79.200 204.149,79.810 204.000,81.437 204.000 C 83.338 204.000,83.706 203.880,83.884 203.200 C 84.048 202.573,84.430 202.400,85.647 202.400 C 86.933 202.400,87.200 202.263,87.200 201.600 C 87.200 200.948,87.467 200.800,88.637 200.800 C 89.738 200.800,90.124 200.613,90.284 200.000 C 90.399 199.560,90.734 199.200,91.028 199.200 C 91.323 199.200,92.006 198.795,92.547 198.300 C 93.087 197.805,94.010 197.040,94.597 196.600 C 96.316 195.312,96.800 194.779,96.800 194.175 C 96.800 193.862,97.160 193.382,97.600 193.107 C 98.040 192.832,98.400 192.291,98.400 191.904 C 98.400 191.467,98.703 191.200,99.200 191.200 C 99.867 191.200,100.000 190.933,100.000 189.600 C 100.000 188.267,100.133 188.000,100.800 188.000 C 101.467 188.000,101.600 187.733,101.600 186.400 C 101.600 185.067,101.733 184.800,102.400 184.800 C 103.053 184.800,103.200 184.533,103.200 183.344 C 103.200 182.419,103.455 181.702,103.900 181.376 C 104.539 180.909,104.600 179.847,104.600 169.200 C 104.600 158.553,104.539 157.491,103.900 157.024 C 103.471 156.710,103.200 155.985,103.200 155.152 C 103.200 154.226,102.945 153.633,102.400 153.293 C 101.847 152.948,101.600 152.360,101.600 151.393 C 101.600 150.487,101.317 149.750,100.800 149.307 C 100.360 148.930,100.000 148.302,100.000 147.911 C 100.000 147.467,99.700 147.200,99.200 147.200 C 98.580 147.200,98.400 146.933,98.400 146.014 C 98.400 145.238,98.124 144.680,97.600 144.400 C 97.160 144.165,96.800 143.720,96.800 143.413 C 96.800 143.105,96.440 142.740,96.000 142.600 C 95.560 142.460,95.200 142.088,95.200 141.773 C 95.200 141.458,94.861 141.200,94.447 141.200 C 94.032 141.200,93.602 140.852,93.491 140.426 C 93.358 139.918,92.795 139.560,91.844 139.382 C 91.009 139.225,90.400 138.877,90.400 138.555 C 90.400 138.250,90.061 138.000,89.647 138.000 C 89.230 138.000,88.800 137.643,88.684 137.200 C 88.518 136.565,88.138 136.400,86.841 136.400 C 85.640 136.400,85.074 136.188,84.707 135.600 C 84.342 135.016,83.774 134.800,82.600 134.800 C 81.426 134.800,80.858 134.584,80.493 134.000 C 79.999 133.209,79.560 133.200,39.997 133.200 L 0.000 133.200 0.000 169.400 M194.200 134.000 C 193.693 134.560,192.968 134.800,191.785 134.800 C 190.430 134.800,190.052 134.959,189.884 135.600 C 189.730 136.189,189.338 136.400,188.401 136.400 C 187.700 136.400,186.669 136.760,186.109 137.200 C 185.550 137.640,184.756 138.000,184.346 138.000 C 183.936 138.000,183.600 138.249,183.600 138.553 C 183.600 138.858,183.240 139.201,182.800 139.316 C 182.360 139.431,182.000 139.812,182.000 140.163 C 182.000 140.513,181.685 140.802,181.300 140.805 C 180.296 140.812,177.200 143.816,177.200 144.784 C 177.200 145.333,176.939 145.600,176.400 145.600 C 175.903 145.600,175.600 145.867,175.600 146.304 C 175.600 146.691,175.240 147.232,174.800 147.507 C 174.301 147.819,174.000 148.440,174.000 149.157 C 174.000 149.970,173.766 150.368,173.200 150.516 C 172.587 150.676,172.400 151.062,172.400 152.163 C 172.400 153.125,172.216 153.600,171.843 153.600 C 171.047 153.600,170.800 154.508,170.800 157.433 C 170.800 159.360,170.661 160.000,170.243 160.000 C 169.312 160.000,169.200 160.967,169.205 168.933 C 169.211 176.958,169.363 178.400,170.202 178.400 C 170.550 178.400,170.760 179.295,170.870 181.244 C 170.988 183.333,171.213 184.220,171.716 184.588 C 172.117 184.881,172.400 185.623,172.400 186.382 C 172.400 187.317,172.611 187.730,173.162 187.874 C 173.651 188.002,174.018 188.571,174.184 189.458 C 174.327 190.219,174.704 190.942,175.022 191.064 C 175.340 191.186,175.600 191.626,175.600 192.043 C 175.600 192.533,175.882 192.800,176.400 192.800 C 176.933 192.800,177.200 193.067,177.200 193.600 C 177.200 194.133,177.467 194.400,178.000 194.400 C 178.533 194.400,178.800 194.667,178.800 195.200 C 178.800 195.733,179.067 196.000,179.600 196.000 C 180.133 196.000,180.400 196.267,180.400 196.800 C 180.400 197.333,180.667 197.600,181.200 197.600 C 181.733 197.600,182.000 197.867,182.000 198.400 C 182.000 198.933,182.267 199.200,182.800 199.200 C 183.240 199.200,183.600 199.451,183.600 199.757 C 183.600 200.395,184.449 200.800,185.786 200.800 C 186.370 200.800,186.783 201.092,186.916 201.600 C 187.071 202.192,187.462 202.400,188.418 202.400 C 189.143 202.400,189.918 202.682,190.180 203.041 C 190.449 203.409,191.490 203.776,192.624 203.903 C 193.753 204.030,194.801 204.398,195.068 204.763 C 195.493 205.342,204.761 205.409,297.768 205.504 L 400.000 205.608 400.000 196.204 C 400.000 190.201,399.855 186.800,399.600 186.800 C 399.365 186.800,399.200 185.400,399.200 183.400 C 399.200 180.533,399.075 179.875,398.400 179.200 C 397.726 178.526,397.600 177.867,397.600 175.014 C 397.600 172.038,397.503 171.576,396.800 171.200 C 396.110 170.831,396.000 170.362,396.000 167.786 C 396.000 165.067,395.929 164.800,395.200 164.800 C 394.470 164.800,394.400 164.533,394.400 161.763 C 394.400 159.062,394.311 158.702,393.600 158.516 C 392.914 158.337,392.800 157.970,392.800 155.953 C 392.800 153.867,392.709 153.600,392.000 153.600 C 391.289 153.600,391.200 153.333,391.200 151.200 C 391.200 149.067,391.111 148.800,390.400 148.800 C 389.689 148.800,389.600 148.533,389.600 146.396 C 389.600 144.487,389.435 143.851,388.800 143.307 C 388.262 142.847,388.000 142.127,388.000 141.111 C 388.000 140.096,387.820 139.600,387.450 139.600 C 386.900 139.600,386.400 137.951,386.400 136.137 C 386.400 135.608,386.148 135.078,385.839 134.960 C 385.531 134.841,385.188 134.397,385.077 133.972 C 384.753 132.732,195.322 132.760,194.200 134.000 M0.000 302.996 L 0.000 339.200 91.197 339.200 C 181.960 339.200,182.396 339.196,182.893 338.400 C 183.279 337.782,183.826 337.600,185.293 337.600 C 186.760 337.600,187.307 337.418,187.693 336.800 C 188.044 336.238,188.626 336.000,189.650 336.000 C 190.770 336.000,191.155 335.815,191.316 335.200 C 191.456 334.663,191.862 334.400,192.548 334.400 C 193.162 334.400,193.743 334.080,194.000 333.600 C 194.235 333.160,194.782 332.800,195.214 332.800 C 195.646 332.800,196.000 332.530,196.000 332.200 C 196.000 331.870,196.287 331.600,196.637 331.600 C 196.988 331.600,197.369 331.240,197.484 330.800 C 197.599 330.360,197.959 330.000,198.284 330.000 C 198.609 330.000,198.965 329.657,199.074 329.237 C 199.184 328.817,199.617 328.384,200.037 328.274 C 200.481 328.158,200.800 327.725,200.800 327.237 C 200.800 326.777,201.051 326.400,201.357 326.400 C 201.960 326.400,202.400 325.562,202.400 324.414 C 202.400 324.018,202.760 323.599,203.200 323.484 C 203.806 323.325,204.000 322.938,204.000 321.884 C 204.000 320.830,204.194 320.443,204.800 320.284 C 205.420 320.122,205.600 319.738,205.600 318.582 C 205.600 317.634,205.850 316.905,206.284 316.588 C 206.793 316.216,207.010 315.330,207.127 313.144 C 207.234 311.164,207.501 309.957,207.943 309.458 C 208.865 308.416,208.919 297.368,208.004 296.803 C 207.600 296.553,207.340 295.410,207.175 293.163 C 206.999 290.769,206.754 289.756,206.267 289.400 C 205.882 289.118,205.600 288.364,205.600 287.618 C 205.600 286.662,205.392 286.271,204.800 286.116 C 204.173 285.952,204.000 285.570,204.000 284.353 C 204.000 283.067,203.863 282.800,203.200 282.800 C 202.613 282.800,202.400 282.533,202.400 281.800 C 202.400 281.250,202.071 280.471,201.669 280.069 C 201.268 279.668,200.823 279.038,200.682 278.669 C 200.541 278.301,200.149 278.000,199.813 278.000 C 199.467 278.000,199.200 277.652,199.200 277.200 C 199.200 276.667,198.933 276.400,198.400 276.400 C 197.867 276.400,197.600 276.133,197.600 275.600 C 197.600 275.067,197.333 274.800,196.800 274.800 C 196.350 274.800,196.000 274.533,196.000 274.190 C 196.000 273.855,195.550 273.409,195.000 273.200 C 194.450 272.991,194.000 272.644,194.000 272.428 C 194.000 272.213,193.370 271.918,192.600 271.774 C 191.830 271.629,191.200 271.280,191.200 270.998 C 191.200 270.343,190.296 270.000,188.571 270.000 C 187.640 270.000,187.048 269.746,186.707 269.200 C 186.367 268.655,185.774 268.400,184.848 268.400 C 184.015 268.400,183.290 268.129,182.976 267.700 C 182.492 267.037,177.589 266.994,91.232 266.896 L 0.000 266.791 0.000 302.996 M298.676 267.089 C 298.058 267.182,297.454 267.515,297.334 267.829 C 297.197 268.184,296.545 268.400,295.611 268.400 C 294.714 268.400,293.698 268.722,293.091 269.200 C 292.531 269.640,291.500 270.000,290.799 270.000 C 289.882 270.000,289.469 270.214,289.326 270.762 C 289.199 271.248,288.632 271.618,287.763 271.781 C 287.013 271.921,286.400 272.213,286.400 272.428 C 286.400 272.644,285.950 272.991,285.400 273.200 C 284.850 273.409,284.400 273.855,284.400 274.190 C 284.400 274.533,284.050 274.800,283.600 274.800 C 283.067 274.800,282.800 275.067,282.800 275.600 C 282.800 276.133,282.533 276.400,282.000 276.400 C 281.467 276.400,281.200 276.667,281.200 277.200 C 281.200 277.733,280.933 278.000,280.400 278.000 C 279.903 278.000,279.600 278.267,279.600 278.704 C 279.600 279.091,279.240 279.632,278.800 279.907 C 278.290 280.226,278.000 280.840,278.000 281.603 C 278.000 282.533,277.822 282.800,277.200 282.800 C 276.533 282.800,276.400 283.067,276.400 284.400 C 276.400 285.733,276.267 286.000,275.600 286.000 C 274.933 286.000,274.800 286.267,274.800 287.600 C 274.800 288.696,274.626 289.200,274.247 289.200 C 273.459 289.200,273.212 290.486,273.205 294.611 C 273.201 297.723,273.089 298.317,272.400 298.907 C 271.061 300.053,271.272 307.600,272.643 307.600 C 273.084 307.600,273.200 308.477,273.200 311.800 C 273.200 315.467,273.302 316.102,274.000 316.800 C 274.495 317.295,274.800 318.133,274.800 319.000 C 274.800 320.133,274.952 320.400,275.600 320.400 C 276.267 320.400,276.400 320.667,276.400 322.000 C 276.400 323.333,276.533 323.600,277.200 323.600 C 277.819 323.600,278.000 323.867,278.000 324.777 C 278.000 325.456,278.307 326.176,278.726 326.477 C 279.126 326.765,279.570 327.315,279.714 327.700 C 279.857 328.085,280.230 328.400,280.541 328.400 C 280.852 328.400,281.201 328.760,281.316 329.200 C 281.431 329.640,281.791 330.000,282.116 330.000 C 282.441 330.000,282.801 330.360,282.916 330.800 C 283.031 331.240,283.412 331.600,283.763 331.600 C 284.113 331.600,284.400 331.870,284.400 332.200 C 284.400 332.530,284.717 332.800,285.104 332.800 C 285.491 332.800,286.017 333.135,286.272 333.544 C 286.527 333.953,287.291 334.398,287.968 334.534 C 288.698 334.680,289.200 335.029,289.200 335.390 C 289.200 335.828,289.623 336.000,290.704 336.000 C 291.774 336.000,292.351 336.230,292.707 336.800 C 293.098 337.426,293.640 337.600,295.203 337.600 C 296.643 337.600,297.200 337.755,297.200 338.157 C 297.200 339.176,298.223 339.200,341.645 339.200 C 382.408 339.200,384.839 339.161,385.073 338.500 C 385.210 338.115,385.542 337.530,385.812 337.200 C 386.082 336.870,386.425 335.745,386.576 334.700 C 386.757 333.440,387.043 332.800,387.425 332.800 C 387.854 332.800,388.000 332.253,388.000 330.647 C 388.000 328.830,388.125 328.461,388.800 328.284 C 389.480 328.106,389.600 327.738,389.600 325.837 C 389.600 323.867,389.695 323.600,390.400 323.600 C 391.109 323.600,391.200 323.333,391.200 321.247 C 391.200 319.230,391.314 318.863,392.000 318.684 C 392.680 318.506,392.800 318.138,392.800 316.237 C 392.800 314.592,392.947 314.000,393.357 314.000 C 394.153 314.000,394.400 313.092,394.400 310.167 C 394.400 307.867,394.483 307.600,395.200 307.600 C 395.933 307.600,396.000 307.333,396.000 304.400 C 396.000 301.931,396.127 301.200,396.557 301.200 C 397.383 301.200,397.600 300.280,397.600 296.787 C 397.600 294.205,397.726 293.569,398.300 293.248 C 398.868 292.930,399.026 292.174,399.140 289.228 C 399.217 287.233,399.442 285.600,399.640 285.600 C 399.843 285.600,400.000 281.508,400.000 276.200 L 400.000 266.800 349.900 266.860 C 322.345 266.893,299.294 266.996,298.676 267.089 M-0.000 423.400 C -0.000 438.200,0.138 446.000,0.400 446.000 C 0.620 446.000,0.800 446.737,0.800 447.637 C 0.800 448.938,0.964 449.318,1.600 449.484 C 2.206 449.643,2.400 450.030,2.400 451.084 C 2.400 452.138,2.594 452.525,3.200 452.684 C 3.801 452.841,4.000 453.230,4.000 454.247 C 4.000 455.193,4.184 455.600,4.610 455.600 C 4.945 455.600,5.391 456.050,5.600 456.600 C 5.809 457.150,6.255 457.600,6.590 457.600 C 6.926 457.600,7.200 457.915,7.200 458.300 C 7.201 459.551,11.254 463.606,12.500 463.603 C 13.334 463.601,13.600 463.793,13.600 464.400 C 13.600 464.865,13.867 465.200,14.237 465.200 C 14.588 465.200,14.969 465.560,15.084 466.000 C 15.199 466.440,15.542 466.800,15.847 466.800 C 16.151 466.800,16.760 467.160,17.200 467.600 C 17.640 468.040,18.450 468.400,19.000 468.400 C 19.588 468.400,20.000 468.630,20.000 468.957 C 20.000 469.672,20.877 470.000,22.786 470.000 C 23.970 470.000,24.353 470.177,24.516 470.800 C 24.694 471.480,25.062 471.600,26.963 471.600 C 28.193 471.600,29.200 471.780,29.200 472.000 C 29.200 472.265,57.467 472.400,113.200 472.400 C 168.933 472.400,197.200 472.265,197.200 472.000 C 197.200 471.753,199.279 471.600,202.637 471.600 C 207.738 471.600,208.088 471.551,208.284 470.800 C 208.480 470.050,208.830 470.000,213.884 470.000 C 218.938 470.000,219.288 469.950,219.484 469.200 C 219.676 468.468,220.030 468.400,223.651 468.400 C 227.113 468.400,227.694 468.300,228.293 467.600 C 228.843 466.958,229.473 466.800,231.489 466.800 C 233.467 466.800,234.170 466.630,234.800 466.000 C 235.398 465.402,236.133 465.200,237.712 465.200 C 239.365 465.200,239.949 465.026,240.400 464.400 C 240.873 463.744,241.435 463.600,243.526 463.600 C 245.738 463.600,246.103 463.494,246.284 462.800 C 246.463 462.116,246.830 462.000,248.814 462.000 C 251.498 462.000,252.400 461.738,252.400 460.957 C 252.400 460.571,252.907 460.400,254.056 460.400 C 255.113 460.400,255.881 460.168,256.180 459.759 C 256.443 459.400,257.473 459.026,258.524 458.907 C 259.743 458.770,260.400 458.504,260.400 458.148 C 260.400 457.811,260.843 457.600,261.550 457.600 C 263.474 457.600,265.200 457.128,265.200 456.602 C 265.200 456.306,265.959 456.018,267.076 455.893 C 268.107 455.776,269.142 455.421,269.376 455.103 C 269.609 454.785,270.484 454.397,271.321 454.240 C 272.158 454.084,272.942 453.696,273.064 453.378 C 273.199 453.027,273.833 452.800,274.680 452.800 C 275.738 452.800,276.125 452.607,276.284 452.000 C 276.439 451.408,276.830 451.200,277.785 451.200 C 278.568 451.200,279.361 450.885,279.800 450.400 C 280.198 449.960,280.922 449.600,281.408 449.600 C 281.894 449.600,282.750 449.240,283.309 448.800 C 283.869 448.360,284.611 448.000,284.960 448.000 C 285.308 448.000,285.818 447.640,286.093 447.200 C 286.396 446.714,287.026 446.400,287.696 446.400 C 288.533 446.400,288.800 446.207,288.800 445.600 C 288.800 444.933,289.067 444.800,290.400 444.800 C 291.733 444.800,292.000 444.667,292.000 444.000 C 292.000 443.333,292.267 443.200,293.600 443.200 C 294.933 443.200,295.200 443.067,295.200 442.400 C 295.200 441.778,295.467 441.600,296.397 441.600 C 297.160 441.600,297.774 441.310,298.093 440.800 C 298.368 440.360,298.909 440.000,299.296 440.000 C 299.733 440.000,300.000 439.697,300.000 439.200 C 300.000 438.548,300.267 438.400,301.437 438.400 C 302.538 438.400,302.924 438.213,303.084 437.600 C 303.234 437.026,303.630 436.800,304.484 436.800 C 305.338 436.800,305.734 436.574,305.884 436.000 C 305.999 435.560,306.426 435.200,306.833 435.200 C 307.239 435.200,307.765 434.840,308.000 434.400 C 308.248 433.937,308.838 433.600,309.400 433.600 C 309.962 433.600,310.552 433.263,310.800 432.800 C 311.035 432.360,311.492 432.000,311.814 432.000 C 312.136 432.000,312.400 431.730,312.400 431.400 C 312.400 431.070,312.717 430.800,313.104 430.800 C 313.491 430.800,314.022 430.456,314.285 430.036 C 314.547 429.616,315.310 429.151,315.981 429.004 C 316.651 428.857,317.200 428.481,317.200 428.168 C 317.200 427.856,317.487 427.600,317.837 427.600 C 318.188 427.600,318.569 427.240,318.684 426.800 C 318.800 426.357,319.230 426.000,319.647 426.000 C 320.133 426.000,320.400 425.717,320.400 425.200 C 320.400 424.613,320.667 424.400,321.400 424.400 C 321.950 424.400,322.729 424.071,323.131 423.669 C 323.532 423.268,324.162 422.823,324.531 422.682 C 324.899 422.541,325.200 422.149,325.200 421.813 C 325.200 421.476,325.487 421.200,325.837 421.200 C 326.188 421.200,326.569 420.840,326.684 420.400 C 326.800 419.957,327.230 419.600,327.647 419.600 C 328.133 419.600,328.400 419.317,328.400 418.800 C 328.400 418.267,328.667 418.000,329.200 418.000 C 329.733 418.000,330.000 417.733,330.000 417.200 C 330.000 416.682,330.267 416.400,330.757 416.400 C 331.174 416.400,331.621 416.121,331.752 415.781 C 331.883 415.441,332.532 414.973,333.195 414.742 C 333.858 414.511,334.400 414.081,334.400 413.788 C 334.400 413.494,334.760 413.140,335.200 413.000 C 335.640 412.860,336.000 412.488,336.000 412.173 C 336.000 411.858,336.287 411.600,336.637 411.600 C 336.988 411.600,337.369 411.240,337.484 410.800 C 337.599 410.360,337.959 410.000,338.284 410.000 C 338.609 410.000,338.969 409.640,339.084 409.200 C 339.199 408.760,339.530 408.400,339.820 408.400 C 340.109 408.400,340.460 408.040,340.600 407.600 C 340.740 407.160,341.112 406.800,341.427 406.800 C 341.742 406.800,342.000 406.620,342.000 406.400 C 342.000 406.180,342.392 405.608,342.871 405.129 C 343.465 404.535,343.751 403.741,343.771 402.629 L 343.800 401.000 171.900 400.900 L -0.000 400.799 -0.000 423.400 " stroke="none" fill="#000000" fill-rule="evenodd"/><path id="path1" d="" stroke="none" fill="#000000" fill-rule="evenodd"/><path id="path2" d="" stroke="none" fill="#000000" fill-rule="evenodd"/><path id="path3" d="" stroke="none" fill="#000000" fill-rule="evenodd"/><path id="path4" d="" stroke="none" fill="#000000" fill-rule="evenodd"/></g></svg>