<?xml version="1.0" encoding="UTF-8"?>
<svg width="24" height="24" viewBox="0 0 24 24" version="1.1" xmlns="http://www.w3.org/2000/svg">
    <g stroke="none" fill="none" fill-rule="evenodd">
        <!-- Hexagonal hive cell -->
        <path d="M12,4 L18,8 L18,16 L12,20 L6,16 L6,8 L12,4 Z" 
              stroke="#000000" 
              stroke-width="1.5"
              fill="#000000"
              fill-opacity="0.1"/>
              
        <!-- Social media nodes -->
        <circle cx="12" cy="8" r="1.5" fill="#000000"/>
        <circle cx="9" cy="12" r="1.5" fill="#000000"/>
        <circle cx="15" cy="12" r="1.5" fill="#000000"/>
        <circle cx="12" cy="16" r="1.5" fill="#000000"/>
        
        <!-- Connection lines -->
        <path d="M12,9.5 L9,10.5 M9,13.5 L12,14.5 M12,14.5 L15,13.5 M15,10.5 L12,9.5"
              stroke="#000000"
              stroke-width="1"
              stroke-linecap="round"/>
              
        <!-- AI automation waves -->
        <path d="M4,12 C5,11 6,13 7,12 M17,12 C18,11 19,13 20,12"
              stroke="#000000"
              stroke-width="1"
              stroke-linecap="round"
              stroke-opacity="0.6"/>
    </g>
</svg> 