<?xml version="1.0" encoding="UTF-8"?>
<svg width="24" height="24" viewBox="0 0 24 24" version="1.1" xmlns="http://www.w3.org/2000/svg">
    <g stroke="none" fill="none" fill-rule="evenodd">
        <!-- Spider web structure -->
        <path d="M12,4 L12,20 M4,12 L20,12 M6,6 L18,18 M18,6 L6,18"
              stroke="#000000"
              stroke-width="1"
              stroke-opacity="0.3"/>
              
        <!-- Data nodes -->
        <circle cx="12" cy="8" r="2" fill="#000000"/>
        <circle cx="8" cy="12" r="2" fill="#000000"/>
        <circle cx="16" cy="12" r="2" fill="#000000"/>
        <circle cx="12" cy="16" r="2" fill="#000000"/>
        
        <!-- Connection lines -->
        <path d="M12,10 L8,12 M8,12 L12,16 M12,16 L16,12 M16,12 L12,10"
              stroke="#000000"
              stroke-width="1.5"
              stroke-linecap="round"/>
              
        <!-- Structure indicators -->
        <path d="M7,7 L9,7 L9,9 L7,9 L7,7 M15,15 L17,15 L17,17 L15,17 L15,15"
              stroke="#000000"
              stroke-width="1"
              fill="none"/>
    </g>
</svg> 