<?xml version="1.0" encoding="UTF-8"?>
<svg width="24px" height="24px" viewBox="0 0 24 24" version="1.1" xmlns="http://www.w3.org/2000/svg">
    <g stroke="none" stroke-width="1" fill="none" fill-rule="evenodd">
        <!-- Main wave group -->
        <g transform="translate(2, 4)" stroke="#000000" stroke-width="2" stroke-linecap="round">
            <!-- Center wave -->
            <path d="M0,8 C2,8 3,4 5,4 C7,4 8,12 10,12 C12,12 13,4 15,4 C17,4 18,8 20,8" />
            
            <!-- Smaller top wave -->
            <path d="M0,4 C2,4 3,2 5,2 C7,2 8,6 10,6 C12,6 13,2 15,2 C17,2 18,4 20,4" 
                  stroke-width="1.5" stroke-opacity="0.7" />
                  
            <!-- Smaller bottom wave -->
            <path d="M0,12 C2,12 3,10 5,10 C7,10 8,14 10,14 C12,14 13,10 15,10 C17,10 18,12 20,12" 
                  stroke-width="1.5" stroke-opacity="0.7" />
        </g>
    </g>
</svg> 