<?xml version="1.0" encoding="UTF-8"?>
<svg width="24px" height="24px" viewBox="0 0 24 24" version="1.1" xmlns="http://www.w3.org/2000/svg">
    <g stroke="none" stroke-width="1" fill="none" fill-rule="evenodd">
        <!-- Microphone body -->
        <path d="M12,2 C14.2,2 16,3.8 16,6 L16,12 C16,14.2 14.2,16 12,16 C9.8,16 8,14.2 8,12 L8,6 C8,3.8 9.8,2 12,2 Z" fill="#000000"/>
        
        <!-- Stand and base -->
        <path d="M6,11 L6,12 C6,15.3 8.7,18 12,18 C15.3,18 18,15.3 18,12 L18,11 M12,18 L12,21 M9,21 L15,21" 
              stroke="#000000" 
              stroke-width="2" 
              stroke-linecap="round"/>
              
        <!-- Sound waves -->
        <path d="M4,10 C3.4,10 3,9.6 3,9 L3,8 C3,7.4 3.4,7 4,7 C4.6,7 5,7.4 5,8 L5,9 C5,9.6 4.6,10 4,10 Z" fill="#000000"/>
        <path d="M20,10 C19.4,10 19,9.6 19,9 L19,8 C19,7.4 19.4,7 20,7 C20.6,7 21,7.4 21,8 L21,9 C21,9.6 20.6,10 20,10 Z" fill="#000000"/>
    </g>
</svg> 