<?xml version="1.0" encoding="UTF-8"?>
<svg width="24" height="24" viewBox="0 0 24 24" version="1.1" xmlns="http://www.w3.org/2000/svg">
    <g stroke="none" fill="none" fill-rule="evenodd">
        <!-- Cloud base -->
        <path d="M6,14 C4.34314575,14 3,12.6568542 3,11 C3,9.34314575 4.34314575,8 6,8 C6.35063542,8 6.68722107,8.0601542 7,8.17071068 C7.65719361,6.32721604 9.29589274,5 11.2928932,5 C13.5632897,5 15.4175076,6.70017011 15.8791728,9 C17.0477387,9 18,9.95226125 18,11.12 C18,12.2877387 17.0477387,13.24 15.8791728,13.24"
              stroke="#000000"
              stroke-width="1.5"
              stroke-linecap="round"/>
        
        <!-- Model nodes -->
        <circle cx="8" cy="16" r="2" fill="#000000"/>
        <circle cx="16" cy="16" r="2" fill="#000000"/>
        <circle cx="12" cy="19" r="2" fill="#000000"/>
        
        <!-- Connection lines -->
        <path d="M8,16 L16,16 M12,19 L8,16 M12,19 L16,16"
              stroke="#000000"
              stroke-width="1.5"
              stroke-linecap="round"
              stroke-opacity="0.6"/>
    </g>
</svg> 