<?xml version="1.0" encoding="UTF-8"?>
<svg width="24" height="24" viewBox="0 0 24 24" version="1.1" xmlns="http://www.w3.org/2000/svg">
    <g transform="translate(0, 4)" fill="#000000" fill-rule="evenodd">
        <path d="M6.19887 7.88098L6.92979 6.91932C7.26113 6.48338 7.80603 6.27848 8.33433 6.39116C8.74337 6.4784 9.00586 6.88848 8.92062 7.30711C8.91357 7.34175 8.90419 7.37586 8.89262 7.40921C8.28541 9.15195 8.09211 10.303 8.31271 10.8624C9.2209 9.75803 13.8606 2.5566 15.327 2.21476C15.8165 2.10063 16.3038 2.41428 16.4153 2.91534C16.4531 3.08485 16.4436 3.2618 16.3881 3.42611C15.0025 7.52633 14.4159 10.0056 14.6282 10.864C15.36 9.81013 16.447 8.39177 17.8891 6.60887C18.4307 5.93917 19.295 5.63905 20.123 5.83308C20.8512 6.00369 21.3063 6.7461 21.1397 7.49131C21.1386 7.4962 21.1375 7.5011 21.1363 7.50599C20.6345 9.64198 20.4485 10.8917 20.5783 11.2551C20.6356 11.2105 20.6937 11.1647 20.7528 11.1178C21.4142 10.5924 22.2424 10.3363 23.0773 10.399L23.5564 10.8856L21.2638 11.3852C20.0655 11.5246 18.9678 12.1383 18.2057 13.095L17.1785 14.3844C16.8422 14.8066 16.3255 15.0338 15.7948 14.9929C15.2675 14.9523 14.8316 14.5565 14.7295 14.0256C14.4787 12.7216 14.4385 11.1823 14.609 9.4079C13.3201 11.3789 12.2017 14.2136 11.254 17.912C11.091 18.5479 10.5295 18.9913 9.8871 18.9913C9.2737 18.9913 8.7712 18.4926 8.7524 17.8651L8.4684 8.40832L5.72124 13.9489C5.43534 14.5255 4.80624 14.8332 4.18826 14.6987C3.53355 14.5562 2.99195 14.0879 2.74529 13.4511L2.43747 12.6563C2.00189 11.5318 1.01882 10.7259 0.85141 10.5365" />
    </g>
</svg> 