<?xml version="1.0" encoding="UTF-8"?>
<svg width="24" height="24" viewBox="0 0 24 24" version="1.1" xmlns="http://www.w3.org/2000/svg">
    <g stroke="none" fill="none" fill-rule="evenodd">
        <!-- IDE window frame -->
        <rect x="3" y="3" width="18" height="18" rx="2" 
              stroke="#000000" 
              stroke-width="1.5"/>
        
        <!-- Code lines -->
        <path d="M6,8 L10,8 M6,12 L14,12 M6,16 L12,16"
              stroke="#000000"
              stroke-width="1.5"
              stroke-linecap="round"
              stroke-opacity="0.6"/>
              
        <!-- Neural network nodes -->
        <circle cx="16" cy="8" r="1.5" fill="#000000"/>
        <circle cx="18" cy="12" r="1.5" fill="#000000"/>
        <circle cx="16" cy="16" r="1.5" fill="#000000"/>
        
        <!-- Neural connections -->
        <path d="M16,8 L18,12 L16,16 M16,8 L16,16"
              stroke="#000000"
              stroke-width="1"
              stroke-opacity="0.4"
              stroke-linecap="round"/>
              
        <!-- AI indicator -->
        <path d="M16,6 C17.5,6 18,7 18,8 C18,9 17.5,10 16,10 C14.5,10 14,9 14,8 C14,7 14.5,6 16,6"
              stroke="#000000"
              stroke-width="1"
              fill="#000000"
              fill-opacity="0.2"/>
    </g>
</svg> 