<?xml version="1.0" encoding="UTF-8"?>
<svg width="24" height="24" viewBox="0 0 24 24" version="1.1" xmlns="http://www.w3.org/2000/svg">
    <g stroke="none" fill="none" fill-rule="evenodd">
        <!-- Bird silhouette -->
        <path d="M12,4 C14,4 16,6 16,8 C16,10 14,12 12,12 C10,12 8,10 8,8 C8,6 10,4 12,4 Z"
              fill="#000000"
              fill-opacity="0.8"/>
              
        <!-- Wings -->
        <path d="M8,8 C6,8 4,10 4,12 M16,8 C18,8 20,10 20,12"
              stroke="#000000"
              stroke-width="1.5"
              stroke-linecap="round"/>
              
        <!-- Analytics bars -->
        <path d="M8,14 L8,18 M12,16 L12,18 M16,15 L16,18"
              stroke="#000000"
              stroke-width="1.5"
              stroke-linecap="round"/>
              
        <!-- Viral indicators -->
        <path d="M6,6 L7,6 M6.5,5.5 L6.5,6.5"
              stroke="#000000"
              stroke-width="1"
              stroke-linecap="round"/>
        <path d="M17,6 L18,6 M17.5,5.5 L17.5,6.5"
              stroke="#000000"
              stroke-width="1"
              stroke-linecap="round"/>
    </g>
</svg> 