<?xml version="1.0" encoding="UTF-8"?>
<svg width="24" height="24" viewBox="0 0 24 24" version="1.1" xmlns="http://www.w3.org/2000/svg">
    <g stroke="none" fill="none" fill-rule="evenodd">
        <!-- AI companion circle -->
        <circle cx="12" cy="12" r="8" 
                stroke="#000000" 
                stroke-width="1.5"/>
        
        <!-- Voice waves -->
        <path d="M8,12 C9,11 10,13 11,12 M13,12 C14,11 15,13 16,12"
              stroke="#000000"
              stroke-width="1.5"
              stroke-linecap="round"/>
              
        <!-- Journey path -->
        <path d="M7,9 C8,8 16,8 17,9 M7,15 C8,16 16,16 17,15"
              stroke="#000000"
              stroke-width="1"
              stroke-linecap="round"
              stroke-opacity="0.4"/>
              
        <!-- Reflection stars -->
        <path d="M5,6 L6,6 M5.5,5.5 L5.5,6.5"
              stroke="#000000"
              stroke-width="1"
              stroke-linecap="round"/>
        <path d="M18,6 L19,6 M18.5,5.5 L18.5,6.5"
              stroke="#000000"
              stroke-width="1"
              stroke-linecap="round"/>
        <path d="M5,18 L6,18 M5.5,17.5 L5.5,18.5"
              stroke="#000000"
              stroke-width="1"
              stroke-linecap="round"/>
        <path d="M18,18 L19,18 M18.5,17.5 L18.5,18.5"
              stroke="#000000"
              stroke-width="1"
              stroke-linecap="round"/>
    </g>
</svg> 